<?xml version="1.0" encoding="utf-8"?>
<!-- Generator: Adobe Illustrator 19.0.0, SVG Export Plug-In . SVG Version: 6.00 Build 0)  -->
<svg version="1.1" id="图层_1" xmlns="http://www.w3.org/2000/svg" xmlns:xlink="http://www.w3.org/1999/xlink" x="0px" y="0px"
	 viewBox="-291 293 16 16" style="enable-background:new -291 293 16 16;" xml:space="preserve">
<style type="text/css">
	.st0{fill:#999999;}
</style>
<path class="st0" d="M-290,294v14h1.8c0-0.1,0-0.2,0-0.3c0-0.3,0-0.1,0-0.4c0-1,1.8-2.1,3.4-2.6c0.1,0,0.6-0.3,0.3-1.1
	c-0.8-0.8-1.4-2.1-1.4-3.3c0-1.9,1.3-3,2.8-3s2.8,1,2.8,3c0,1.3-0.6,2.5-1.4,3.3l0,0c-0.3,0.9,0.2,1.1,0.3,1.1
	c1.6,0.5,3.5,1.6,3.5,2.6c0,0.3,0,0.1,0,0.4c0,0.1,0,0.2,0,0.3h1.9v-14H-290z"/>
</svg>
