<?xml version="1.0" encoding="utf-8"?>
<!-- Generator: Adobe Illustrator 19.0.0, SVG Export Plug-In . SVG Version: 6.00 Build 0)  -->
<svg version="1.1" id="图层_1" xmlns="http://www.w3.org/2000/svg" xmlns:xlink="http://www.w3.org/1999/xlink" x="0px" y="0px"
	 viewBox="-291 293 16 16" style="enable-background:new -291 293 16 16;" xml:space="preserve">
<style type="text/css">
	.st0{fill:#999899;}
</style>
<path id="XMLID_126_" class="st0" d="M-277.2,302.1c-0.3-0.4-0.3-1,0-1.4l0.2-0.2c0.5-0.7,0.2-1.6-0.6-1.9l-0.2-0.1
	c-0.5-0.2-0.9-0.6-0.8-1.2v-0.2c0-0.8-0.8-1.4-1.6-1.1l-0.2,0.1c-0.5,0.2-1.1,0-1.4-0.4l-0.2-0.3c-0.5-0.7-1.5-0.7-2,0l-0.1,0.2
	c-0.3,0.5-0.9,0.6-1.4,0.5l-0.2-0.1c-0.8-0.3-1.6,0.3-1.6,1.1v0.2c0,0.5-0.3,1-0.8,1.2l-0.3,0.1c-0.8,0.3-1.1,1.2-0.6,1.9l0.2,0.2
	c0.3,0.4,0.3,1,0,1.4l-0.2,0.2c-0.5,0.7-0.2,1.6,0.6,1.9l0.2,0.1c0.5,0.2,0.9,0.6,0.8,1.2v0.2c0,0.8,0.8,1.4,1.6,1.1l0.2-0.1
	c0.5-0.2,1.1,0,1.4,0.4l0.2,0.3c0.5,0.7,1.5,0.7,2,0l0.1-0.2c0.3-0.4,0.9-0.6,1.4-0.4l0.2,0.1c0.8,0.3,1.6-0.3,1.6-1.1v-0.2
	c0-0.5,0.3-1,0.8-1.2l0.2-0.1c0.8-0.2,1.1-1.2,0.6-1.9L-277.2,302.1z M-280,299.6c-0.9,1.1-2.4,2.7-4.1,5.3
	c-0.1,0.1-0.2,0.3-0.3,0.2c-0.7-0.3-0.9-0.7-0.9-1.6c0.1-1.2,0.5-3.6,1.1-5.4c0.1-0.2,0.2-0.2,0.4-0.1c0.6,0.5,0.7,1.1,0.4,2.2
	c-0.3,1.3-0.7,2.3-0.9,4.1c1.2-2,3.5-5,4.7-6.2c0.2-0.2,0.3-0.2,0.3,0.1C-279.3,298.5-279.5,298.9-280,299.6z"/>
</svg>
