<?xml version="1.0" encoding="utf-8"?>
<!-- Generator: Adobe Illustrator 19.0.0, SVG Export Plug-In . SVG Version: 6.00 Build 0)  -->
<svg version="1.1" id="图层_1" xmlns="http://www.w3.org/2000/svg" xmlns:xlink="http://www.w3.org/1999/xlink" x="0px" y="0px"
	 viewBox="-291 293 16 16" style="enable-background:new -291 293 16 16;" xml:space="preserve">
<style type="text/css">
	.st0{fill:none;}
	.st1{fill:#FFFFFF;}
	.st2{fill:#999999;}
</style>
<g>
	<rect x="-281.4" y="303.4" class="st0" width="0" height="0.6"/>
	<rect x="-281.4" y="303.4" class="st1" width="3.6" height="0.6"/>
	<path class="st2" d="M-282.7,303.7c0-1.4,0.9-2.6,2.2-3c0.3-0.1,0.5-0.1,0.8-0.2c0.1,0,0.1,0,0.2,0c1.1,0,2.1,0.6,2.7,1.5
		c0.1-0.1,0.1-0.2,0.2-0.2c0.7-1,1.1-2.3,1.1-3.6c0-2.2-1.8-4-4-4c-1.6,0-2.8,0.7-3.6,1.9c-0.7-1.1-2-1.9-3.4-1.9c-2.2,0-4,1.8-4,4
		s1.2,4,2.8,5.6c1.6,1.6,4,3.4,4.7,4c0.2-0.2,0.7-0.6,1.3-1.1c0.1-0.1,0.3-0.3,0.5-0.4C-282.1,305.8-282.7,304.8-282.7,303.7z"/>
	<path class="st2" d="M-279.5,301c-0.1,0-0.2,0-0.2,0c-0.3,0-0.5,0.1-0.7,0.2c-1.1,0.4-1.8,1.3-1.8,2.5c0,1.3,0.9,2.4,2.1,2.6
		c0.2,0,0.4,0.1,0.6,0.1c1.5,0,2.7-1.2,2.7-2.7c0-0.2,0-0.4-0.1-0.6v0C-277.2,301.9-278.3,301-279.5,301z M-277.8,304h-3.6h0v-0.6h0
		h3.6V304z"/>
	<path class="st1" d="M-282.2,303.7c0-1.2,0.7-2.1,1.8-2.5c0.2-0.1,0.4-0.2,0.7-0.2c0,0,0.1,0,0.2,0c1.2,0,2.3,0.9,2.6,2.1
		c0.1-0.4,0.2-0.9,0.2-1.3c-0.1,0.1-0.1,0.2-0.2,0.2c-0.6-0.9-1.6-1.5-2.7-1.5c-0.1,0-0.1,0-0.2,0c-0.3,0.1-0.5,0.1-0.8,0.2
		c-1.3,0.4-2.2,1.6-2.2,3c0,1.1,0.6,2.1,1.5,2.6c-0.2,0.1-0.3,0.3-0.5,0.4c0.6,0,1.1-0.2,1.6-0.4
		C-281.3,306.1-282.2,305-282.2,303.7z"/>
</g>
</svg>
