<?xml version="1.0" encoding="utf-8"?>
<!-- Generator: Adobe Illustrator 19.0.0, SVG Export Plug-In . SVG Version: 6.00 Build 0)  -->
<svg version="1.1" id="图层_1" xmlns="http://www.w3.org/2000/svg" xmlns:xlink="http://www.w3.org/1999/xlink" x="0px" y="0px"
	 viewBox="-16 18 16 16" style="enable-background:new -16 18 16 16;" xml:space="preserve">
<style type="text/css">
	.st0{fill:#999999;}
</style>
<g id="XMLID_10_">
	<rect id="XMLID_46_" x="-11.9" y="26.3" class="st0" width="0.5" height="5.6"/>
	<rect id="XMLID_145_" x="-4.7" y="26.3" class="st0" width="0.5" height="5.6"/>
	<path id="XMLID_147_" class="st0" d="M-2.6,26.2V25h0c0-3-2.4-5.4-5.4-5.4c-3,0-5.4,2.4-5.4,5.4h0v1.2c-0.9,0.5-1.5,1.5-1.5,2.7
		c0,1.1,0.6,2.1,1.5,2.7c0.3,0.2,0.7,0.3,1,0.4v-6.1V25h0c0-2.4,2-4.4,4.4-4.4c2.4,0,4.4,2,4.4,4.4h0v0.9v6.1c0.4-0.1,0.7-0.2,1-0.4
		c0.9-0.5,1.5-1.5,1.5-2.7C-1.1,27.7-1.7,26.7-2.6,26.2z"/>
</g>
</svg>
