<?xml version="1.0" encoding="utf-8"?>
<!-- Generator: Adobe Illustrator 19.0.0, SVG Export Plug-In . SVG Version: 6.00 Build 0)  -->
<svg version="1.1" id="图层_1" xmlns="http://www.w3.org/2000/svg" xmlns:xlink="http://www.w3.org/1999/xlink" x="0px" y="0px"
	 viewBox="-16 18 16 16" style="enable-background:new -16 18 16 16;" xml:space="preserve">
<style type="text/css">
	.st0{fill:#999999;}
</style>
<g id="XMLID_11_">
	<path id="XMLID_42_" class="st0" d="M-8,21.8c-2.6,0-4.7,2.1-4.7,4.7s2.1,4.7,4.7,4.7s4.7-2.1,4.7-4.7S-5.4,21.8-8,21.8z M-8,30.2
		c-2,0-3.7-1.6-3.7-3.7c0-2,1.6-3.7,3.7-3.7s3.7,1.6,3.7,3.7C-4.4,28.5-6,30.2-8,30.2z"/>
	<path id="XMLID_43_" class="st0" d="M-7,26.8h-1.1V25l0,0c0-0.2-0.2-0.4-0.4-0.4s-0.4,0.2-0.4,0.4v2.2l0,0c0,0.2,0.2,0.3,0.4,0.3
		H-7c0.2,0,0.4-0.2,0.4-0.4S-6.8,26.8-7,26.8z"/>
</g>
</svg>
