<?xml version="1.0" encoding="utf-8"?>
<!-- Generator: Adobe Illustrator 19.0.0, SVG Export Plug-In . SVG Version: 6.00 Build 0)  -->
<svg version="1.1" id="图层_1" xmlns="http://www.w3.org/2000/svg" xmlns:xlink="http://www.w3.org/1999/xlink" x="0px" y="0px"
	 viewBox="0 0 130 130" style="enable-background:new 0 0 130 130;" xml:space="preserve">
<style type="text/css">
	.st0{fill-rule:evenodd;clip-rule:evenodd;fill:#999999;stroke:#999999;stroke-width:7;stroke-miterlimit:10;}
</style>
<path id="XMLID_6_" class="st0" d="M112.1,58.6c0-9.9-10.6-10.6-10.6-10.6H85.6c-1.3,0-2-1.3-2-2.7c2-4.6,5.3-13.9,4-20.6
	c-2-9.3-9.9-9.9-12.6-9.9c-0.7,0-1.3,0.7-1.3,1.3L67,34.7c0,0,0,0.7-0.7,0.7L50.8,54c-0.7,0.7-1.3,0.7-2,0.7h-1.3V101h1.3
	c4.6,0,19.5,13.3,34.1,13.3c14.6,0,17.9-2,20.5-6.6c2.6-4.6,0.7-8.6,0.7-8.6s3.3-2,4-6.6c0.7-4.6-0.7-7.3-0.7-7.3s3.3-2.6,3.3-7.9
	c0.7-6-1.3-8-1.3-8S112.7,65.9,112.1,58.6z M17.1,103.3H37V56.1H17.1V103.3z"/>
</svg>
